HIERARCHY
ROOT Hips
{
    OFFSET 0.000 93.594 0.000
    CHANNELS 6 Xposition Yposition Zposition Yrotation Xrotation Zrotation
    JOINT RightHip
    {
        OFFSET -9.500 -1.594 0.000
        CHANNELS 3 Yrotation Xrotation Zrotation
        JOINT RightKnee
        {
            OFFSET 0.000 -42.000 0.000
            CHANNELS 3 Yrotation Xrotation Zrotation
            JOINT RightAnkle
            {
                OFFSET 0.000 -42.000 0.000
                CHANNELS 3 Yrotation Xrotation Zrotation
                End Site
                {
                    OFFSET 0.000 -8.000 17.500
                }
            }
        }
    }
    JOINT LeftHip
    {
        OFFSET 9.500 -1.594 0.000
        CHANNELS 3 Yrotation Xrotation Zrotation
        JOINT LeftKnee
        {
            OFFSET 0.000 -42.000 0.000
            CHANNELS 3 Yrotation Xrotation Zrotation
            JOINT LeftAnkle
            {
                OFFSET 0.000 -42.000 0.000
                CHANNELS 3 Yrotation Xrotation Zrotation
                End Site
                {
                    OFFSET 0.000 -8.000 17.500
                }
            }
        }
    }
    JOINT Chest
    {
        OFFSET 0.000 14.348 0.000
        CHANNELS 3 Yrotation Xrotation Zrotation
        JOINT Chest2
        {
            OFFSET 0.000 9.746 0.000
            CHANNELS 3 Yrotation Xrotation Zrotation
            JOINT Chest3
            {
                OFFSET 0.000 10.149 0.000
                CHANNELS 3 Yrotation Xrotation Zrotation
                JOINT Chest4
                {
                    OFFSET 0.000 9.746 0.000
                    CHANNELS 3 Yrotation Xrotation Zrotation
                    JOINT Neck
                    {
                        OFFSET 0.000 10.417 0.000
                        CHANNELS 3 Yrotation Xrotation Zrotation
                        JOINT Head
                        {
                            OFFSET 0.000 9.000 0.000
                            CHANNELS 3 Yrotation Xrotation Zrotation
                            End Site
                            {
                                OFFSET 0.000 16.000 0.000
                            }
                        }
                    }
                    JOINT RightCollar
                    {
                        OFFSET -3.200 6.945 0.000
                        CHANNELS 3 Yrotation Xrotation Zrotation
                        JOINT RightShoulder
                        {
                            OFFSET -12.800 0.000 0.000
                            CHANNELS 3 Yrotation Xrotation Zrotation
                            JOINT RightElbow
                            {
OFFSET -0 -27 0.000
						CHANNELS 3 Xrotation Yrotation Zrotation
                                JOINT RightWrist
                                {
OFFSET -0 -26 0.000
						CHANNELS 3 Xrotation Yrotation Zrotation
                                    JOINT RightFinger0
                                    {
OFFSET -0.196 -2.56 3.210
						CHANNELS 3 Xrotation Yrotation Zrotation
                                        JOINT RightFinger01
                                        {
OFFSET -0 -3.788 0.000
						CHANNELS 3 Xrotation Yrotation Zrotation
                                            JOINT RightFinger0Nub
                                            {
OFFSET -0 -2.631 0.000
						CHANNELS 3 Xrotation Yrotation Zrotation
                                                End Site
                                                {
OFFSET 0 -2.256 0
                                                }
                                            }
                                        }
                                    }
                                    JOINT RightFinger1
                                    {
OFFSET -0.523 -3.316 2.035
						CHANNELS 3 Xrotation Yrotation Zrotation
                                        JOINT RightFinger11
                                        {
OFFSET 0.094 -5.366 1.028
						CHANNELS 3 Xrotation Yrotation Zrotation
                                            JOINT RightFinger12
                                            {
OFFSET -0 -3.723 0.000
						CHANNELS 3 Xrotation Yrotation Zrotation
                                                JOINT RightFinger1Nub
                                                {
OFFSET -0 -2.111 0.000
						CHANNELS 3 Xrotation Yrotation Zrotation
                                                    End Site
                                                    {
OFFSET 0 -1.857 0
                                                    }
                                                }
                                            }
                                        }
                                    }
                                    JOINT RightFinger2
                                    {
OFFSET -0.532 -3.479 0.778
						CHANNELS 3 Xrotation Yrotation Zrotation
                                        JOINT RightFinger21
                                        {
OFFSET 0.086 -5.322 0.323
						CHANNELS 3 Xrotation Yrotation Zrotation
                                            JOINT RightFinger22
                                            {
OFFSET -0 -4.062 0.000
						CHANNELS 3 Xrotation Yrotation Zrotation
                                                JOINT RightFinger2Nub
                                                {
OFFSET -0 -2.547 0.000
						CHANNELS 3 Xrotation Yrotation Zrotation
                                                    End Site
                                                    {
OFFSET 0 -2.031 0
                                                    }
                                                }
                                            }
                                        }
                                    }
                                    JOINT RightFinger3
                                    {
OFFSET -0.553 -3.461 -0.133
						CHANNELS 3 Xrotation Yrotation Zrotation
                                        JOINT RightFinger31
                                        {
OFFSET 0.023 -4.767 -0.493
						CHANNELS 3 Xrotation Yrotation Zrotation
                                            JOINT RightFinger32
                                            {
OFFSET -0 -3.541 0.000
						CHANNELS 3 Xrotation Yrotation Zrotation
                                                JOINT RightFinger3Nub
                                                {
OFFSET -0 -2.456 0.000
						CHANNELS 3 Xrotation Yrotation Zrotation
                                                    End Site
                                                    {
OFFSET 0 -1.91 0
                                                    }
                                                }
                                            }
                                        }
                                    }
                                    JOINT RightFinger4
                                    {
OFFSET -0.483 -3.251 -1.236
						CHANNELS 3 Xrotation Yrotation Zrotation
                                        JOINT RightFinger41
                                        {
OFFSET 0.023 -4.259 -1.122
						CHANNELS 3 Xrotation Yrotation Zrotation
                                            JOINT RightFinger42
                                            {
OFFSET -0 -2.835 0.000
						CHANNELS 3 Xrotation Yrotation Zrotation
                                                JOINT RightFinger4Nub
                                                {
OFFSET -0 -1.792 0.000
						CHANNELS 3 Xrotation Yrotation Zrotation
                                                    End Site
                                                    {
OFFSET 0 -1.692 0
                                                    }
                                                }
                                            }
                                        }
                                    }
                                }
                            }
                        }
                    }
                    JOINT LeftCollar
                    {
                        OFFSET 3.200 6.945 0.000
                        CHANNELS 3 Yrotation Xrotation Zrotation
                        JOINT LeftShoulder
                        {
                            OFFSET 12.800 0.000 0.000
                            CHANNELS 3 Yrotation Xrotation Zrotation
                            JOINT LeftElbow
                            {
OFFSET -0 -27 0.000
						CHANNELS 3 Xrotation Yrotation Zrotation
                                JOINT LeftWrist
                                {
OFFSET -0 -26 0.000
						CHANNELS 3 Xrotation Yrotation Zrotation
                                    JOINT LeftFinger0
                                    {
OFFSET -0.196 -2.56 3.210
						CHANNELS 3 Xrotation Yrotation Zrotation
                                        JOINT LeftFinger01
                                        {
OFFSET -0 -3.788 0.000
						CHANNELS 3 Xrotation Yrotation Zrotation
                                            JOINT LeftFinger0Nub
                                            {
OFFSET -0 -2.631 0.000
						CHANNELS 3 Xrotation Yrotation Zrotation
                                                End Site
                                                {
OFFSET 0 -2.256 0
                                                }
                                            }
                                        }
                                    }
                                    JOINT LeftFinger1
                                    {
OFFSET -0.523 -3.316 2.035
						CHANNELS 3 Xrotation Yrotation Zrotation
                                        JOINT LeftFinger11
                                        {
OFFSET 0.094 -5.366 1.028
						CHANNELS 3 Xrotation Yrotation Zrotation
                                            JOINT LeftFinger12
                                            {
OFFSET -0 -3.723 0.000
						CHANNELS 3 Xrotation Yrotation Zrotation
                                                JOINT LeftFinger1Nub
                                                {
OFFSET -0 -2.111 0.000
						CHANNELS 3 Xrotation Yrotation Zrotation
                                                    End Site
                                                    {
OFFSET 0 -1.857 0
                                                    }
                                                }
                                            }
                                        }
                                    }
                                    JOINT LeftFinger2
                                    {
OFFSET -0.532 -3.479 0.778
						CHANNELS 3 Xrotation Yrotation Zrotation
                                        JOINT LeftFinger21
                                        {
OFFSET 0.086 -5.322 0.323
						CHANNELS 3 Xrotation Yrotation Zrotation
                                            JOINT LeftFinger22
                                            {
OFFSET -0 -4.062 0.000
						CHANNELS 3 Xrotation Yrotation Zrotation
                                                JOINT LeftFinger2Nub
                                                {
OFFSET -0 -2.547 0.000
						CHANNELS 3 Xrotation Yrotation Zrotation
                                                    End Site
                                                    {
OFFSET 0 -2.031 0
                                                    }
                                                }
                                            }
                                        }
                                    }
                                    JOINT LeftFinger3
                                    {
OFFSET -0.553 -3.461 -0.133
						CHANNELS 3 Xrotation Yrotation Zrotation
                                        JOINT LeftFinger31
                                        {
OFFSET 0.023 -4.767 -0.493
						CHANNELS 3 Xrotation Yrotation Zrotation
                                            JOINT LeftFinger32
                                            {
OFFSET -0 -3.541 0.000
						CHANNELS 3 Xrotation Yrotation Zrotation
                                                JOINT LeftFinger3Nub
                                                {
OFFSET -0 -2.456 0.000
						CHANNELS 3 Xrotation Yrotation Zrotation
                                                    End Site
                                                    {
OFFSET 0 -1.91 0
                                                    }
                                                }
                                            }
                                        }
                                    }
                                    JOINT LeftFinger4
                                    {
OFFSET -0.483 -3.251 -1.236
						CHANNELS 3 Xrotation Yrotation Zrotation
                                        JOINT LeftFinger41
                                        {
OFFSET 0.023 -4.259 -1.122
						CHANNELS 3 Xrotation Yrotation Zrotation
                                            JOINT LeftFinger42
                                            {
OFFSET -0 -2.835 0.000
						CHANNELS 3 Xrotation Yrotation Zrotation
                                                JOINT LeftFinger4Nub
                                                {
OFFSET -0 -1.792 0.000
						CHANNELS 3 Xrotation Yrotation Zrotation
                                                    End Site
                                                    {
OFFSET 0 -1.692 0
                                                    }
                                                }
                                            }
                                        }
                                    }
                                }
                            }
                        }
                    }
                }
            }
        }
    }
}
MOTION

Frames: 10
Frame Time: 0.017
-137.63 89.88 92.77 142.41 -5.84 2.71 19.97 -14.94 -12.23 0.00 37.02 0.00 4.90 -15.25 10.36 -4.71 2.75 3.27 0.00 45.93 0.00 2.95 -2.73 0.32 -15.85 7.87 2.34 -3.94 2.23 0.77 -6.30 3.97 1.19 1.25 -0.12 -0.04 1.26 -0.12 -0.04 23.15 -3.11 -1.33 15.68 -0.14 -8.05 -11.50 -2.93 -35.24 -47.63 -8.77 46.47 -21.12 0.18 21.90 -46.69 -0 18.16 17.16 -0 -11.66 8.92 -0 0.00 0 -0 0.00 -15 -0 37.66 0 -0 36.76 0 -0 18.38 0 -0 0.00 0 -0 31.07 0 -0 31.07 0 -0 31.07 0 -0 0.00 15 -0 39.71 0 -0 39.71 0 -0 39.71 0 -0 0.00 25 -0 40.53 0 -0 40.53 0 -0 40.53 -9.30 2.40 6.35 -16.99 -35.87 60.2 -33.99 -3.63 1.88 -20.77 30.73 -5.16 -7.68 0 -45.36 -5.31 0 -1.15 36.94 0 0.00 0.00 0 0.00 -15.00 0 -49.59 0.00 0 -49.84 0.00 0 -24.92 0.00 0 0.00 0.00 0 -55.84 0.00 0 -55.84 0.00 0 -55.84 0.00 0 0.00 15.00 0 -73.60 0.00 0 -73.60 0.00 0 -73.60 0.00 0 0.00 25.00 0 -49.74 0.00 0 -49.74 0.00 0 -49.74 
-137.70 90.00 92.71 143.62 -6.17 2.98 19.28 -14.10 -12.50 -0.00 36.68 0.00 4.36 -15.23 10.59 -6.70 2.97 2.62 -0.00 45.98 -0.00 3.43 -2.51 0.01 -15.89 7.72 2.17 -3.95 2.18 0.72 -6.32 3.88 1.12 1.19 -0.11 -0.03 1.19 -0.26 -0.03 22.05 -2.71 -1.09 16.60 0.27 -7.37 -12.68 -2.88 -35.42 -47.57 -8.76 45.96 -21.02 -0.03 21.45 -46.68 -0 18.30 17.18 -0 -11.52 8.91 -0 0.00 0 -0 0.00 -15 -0 37.95 0 -0 36.98 0 -0 18.49 0 -0 0.00 0 -0 31.93 0 -0 31.93 0 -0 31.93 0 -0 0.00 15 -0 40.59 0 -0 40.59 0 -0 40.59 0 -0 0.00 25 -0 40.62 0 -0 40.62 0 -0 40.62 -8.26 2.41 6.05 -13.80 -35.85 57.96 -38.90 -2.64 -0.56 -19.79 29.95 -5.47 -7.76 0 -45.18 -5.47 0 -0.96 35.97 0 0.00 0.00 0 0.00 -15.00 0 -49.20 0.00 0 -49.73 0.00 0 -24.86 0.00 0 0.00 0.00 0 -55.03 0.00 0 -55.03 0.00 0 -55.03 0.00 0 0.00 15.00 0 -73.44 0.00 0 -73.44 0.00 0 -73.44 0.00 0 0.00 25.00 0 -48.38 0.00 0 -48.38 0.00 0 -48.38 
-137.80 90.11 92.56 143.99 -6.24 3.15 19.51 -13.50 -12.70 -0.00 36.22 0.00 3.73 -15.14 10.88 -7.13 3.11 2.46 -0.00 45.92 0.00 3.53 -2.57 -0.30 -15.34 7.46 2.13 -3.82 2.09 0.70 -6.12 3.72 1.09 1.13 -0.16 -0.03 1.14 -0.16 -0.03 20.85 -2.39 -0.88 17.49 0.61 -6.58 -13.84 -2.92 -35.7 -47.45 -8.72 45.58 -20.8 -0.33 20.91 -46.69 -0 18.47 17.16 -0 -11.35 8.83 -0 0.00 0 -0 0.00 -15 -0 38.26 0 -0 37.16 0 -0 18.58 0 -0 0.00 0 -0 32.25 0 -0 32.25 0 -0 32.25 0 -0 0.00 15 -0 40.87 0 -0 40.87 0 -0 40.87 0 -0 0.00 25 -0 40.70 0 -0 40.70 0 -0 40.70 -7.40 2.57 5.90 -11.13 -35.63 56.09 -43.22 -1.57 -2.88 -18.58 29.5 -5.75 -7.85 0 -45.01 -5.66 0 -0.80 35.85 0 0.00 0.00 0 0.00 -15.00 0 -48.75 0.00 0 -49.64 0.00 0 -24.82 0.00 0 0.00 0.00 0 -54.13 0.00 0 -54.13 0.00 0 -54.13 0.00 0 0.00 15.00 0 -73.20 0.00 0 -73.20 0.00 0 -73.20 0.00 0 0.00 25.00 0 -48.24 0.00 0 -48.24 0.00 0 -48.24 
-137.89 90.23 92.43 144.28 -6.30 3.28 19.90 -12.91 -12.84 -0.00 35.76 -0.00 3.00 -15.09 11.20 -7.02 3.23 2.58 -0.00 45.73 -0.00 3.05 -2.51 -0.18 -14.61 7.15 2.12 -3.63 1.99 0.69 -5.84 3.53 1.07 1.07 -0.17 0.01 1.08 -0.17 0.01 19.67 -2.81 -0.21 18.10 0.73 -5.95 -14.88 -2.89 -35.95 -47.28 -8.75 45.38 -20.58 -0.44 20.58 -46.78 -0 19.05 16.98 -0 -10.77 9 -0 0.00 0 -0 0.00 -15 -0 38.40 0 -0 37.47 0 -0 18.73 0 -0 0.00 0 -0 32.32 0 -0 32.32 0 -0 32.32 0 -0 0.00 15 -0 41.47 0 -0 41.47 0 -0 41.47 0 -0 0.00 25 -0 40.76 0 -0 40.76 0 -0 40.76 -7.28 2.33 5.41 -8.64 -34.39 54.54 -47.87 4.01 -4.93 -15.95 25.42 -6.71 -7.95 0 -44.90 -5.84 0 -0.69 35.76 0 0.00 0.00 0 0.00 -15.00 0 -48.80 0.00 0 -48.22 0.00 0 -24.11 0.00 0 0.00 0.00 0 -53.00 0.00 0 -53.00 0.00 0 -53.00 0.00 0 0.00 15.00 0 -72.87 0.00 0 -72.87 0.00 0 -72.87 0.00 0 0.00 25.00 0 -48.10 0.00 0 -48.10 0.00 0 -48.10 
-138.04 90.30 92.39 144.59 -6.34 3.33 20.29 -12.48 -12.92 0.00 35.41 0.00 2.32 -15.10 11.45 -6.73 3.36 2.81 0.00 45.41 0.00 2.43 -2.35 0.06 -13.89 6.78 2.18 -3.45 1.88 0.69 -5.57 3.32 1.08 1.01 -0.18 0.05 1.01 -0.18 0.05 18.50 -3.17 0.38 18.52 0.83 -5.59 -15.68 -2.70 -36.01 -47.08 -9 45.23 -20.42 -0.29 20.31 -46.87 -0 19.14 16.79 -0 -10.68 9.39 -0 0.00 0 -0 0.00 -15 -0 38.61 0 -0 37.50 0 -0 18.75 0 -0 0.00 0 -0 32.39 0 -0 32.39 0 -0 32.39 0 -0 0.00 15 -0 41.67 0 -0 41.67 0 -0 41.67 0 -0 0.00 25 -0 40.96 0 -0 40.96 0 -0 40.96 -7.16 2.19 4.79 -6.37 -32.85 52.96 -51.23 6.04 -6.00 -15.23 25.22 -6.64 -8.05 0 -44.78 -6.06 0 -0.56 35.78 0 0.00 0.00 0 0.00 -15.00 0 -49.23 0.00 0 -46.26 0.00 0 -23.13 0.00 0 0.00 0.00 0 -51.76 0.00 0 -51.76 0.00 0 -51.76 0.00 0 0.00 15.00 0 -72.42 0.00 0 -72.42 0.00 0 -72.42 0.00 0 0.00 25.00 0 -48.03 0.00 0 -48.03 0.00 0 -48.03 
-138.08 90.02 92.40 145.11 -6.36 3.27 20.50 -12.87 -12.93 -0.00 36.59 -0.00 1.76 -15.92 11.58 -6.64 3.87 2.97 -0.00 44.10 0.00 2.30 -1.91 0.24 -14.21 6.77 2.20 -3.53 1.88 0.69 -5.69 3.33 1.08 1.05 -0.29 0.10 1.06 -0.29 0.10 19.27 -5.31 0.95 20.35 0.43 -5.44 -16.35 -2.42 -36.07 -46.75 -9.53 45.07 -21.39 0.03 21.38 -46.61 -0 18.54 17.33 -0 -11.28 9.79 -0 0.00 0 -0 0.00 -15 -0 37.46 0 -0 37.10 0 -0 18.55 0 -0 0.00 0 -0 31.58 0 -0 31.58 0 -0 31.58 0 -0 0.00 15 -0 41.13 0 -0 41.13 0 -0 41.13 0 -0 0.00 25 -0 40.56 0 -0 40.56 0 -0 40.56 -5.80 1.27 3.83 -8.37 -31.82 53.93 -51.27 8.66 -5.80 -14.73 25.06 -6.26 -8.12 0 -44.69 -6.19 0 -0.48 36.05 0 0.00 0.00 0 0.00 -15.00 0 -49.33 0.00 0 -45.70 0.00 0 -22.85 0.00 0 0.00 0.00 0 -51.99 0.00 0 -51.99 0.00 0 -51.99 0.00 0 0.00 15.00 0 -72.05 0.00 0 -72.05 0.00 0 -72.05 0.00 0 0.00 25.00 0 -47.98 0.00 0 -47.98 0.00 0 -47.98 
-138.22 90.00 92.45 145.81 -6.35 3.16 20.49 -12.71 -12.90 0.00 36.51 0.00 1.06 -16.03 11.80 -6.76 3.90 3.10 0.00 43.76 0.00 2.50 -2.29 0.43 -14.62 6.72 2.24 -3.64 1.87 0.71 -5.85 3.32 1.11 1.08 -0.33 0.11 1.08 -0.33 0.11 19.70 -6.02 1.01 22.32 -0.01 -5.20 -17.03 -2.26 -36.21 -46.22 -10.26 44.95 -21.46 -0.02 21.34 -46.61 -0 18.56 17.32 -0 -11.26 10.18 -0 0.00 0 -0 0.00 -15 -0 37.44 0 -0 36.71 0 -0 18.35 0 -0 0.00 0 -0 31.65 0 -0 31.65 0 -0 31.65 0 -0 0.00 15 -0 41.21 0 -0 41.21 0 -0 41.21 0 -0 0.00 25 -0 40.57 0 -0 40.57 0 -0 40.57 -4.16 0.58 3.14 -10.43 -31.09 54.62 -51.21 10.58 -5.53 -14.39 25.19 -5.86 -8.14 0 -44.64 -6.23 0 -0.42 36.34 0 0.00 0.00 0 0.00 -15.00 0 -48.86 0.00 0 -46.15 0.00 0 -23.07 0.00 0 0.00 0.00 0 -52.23 0.00 0 -52.23 0.00 0 -52.23 0.00 0 0.00 15.00 0 -71.85 0.00 0 -71.85 0.00 0 -71.85 0.00 0 0.00 25.00 0 -48.08 0.00 0 -48.08 0.00 0 -48.08 
-138.41 90.02 92.45 146.64 -6.39 2.95 20.40 -12.36 -12.77 -0.00 36.17 -0.00 0.23 -15.95 12.10 -7.01 3.55 3.38 -0.00 44.09 0.00 1.98 -2.31 0.75 -14.27 6.33 2.49 -3.55 1.76 0.76 -5.71 3.13 1.19 1.03 -0.33 0.12 1.04 -0.33 0.12 18.81 -6.17 1.20 23.07 0.02 -4.81 -17.93 -2.11 -36.4 -45.23 -10.49 44.28 -22.25 -0.53 21.88 -46.59 -0 18.56 17.35 -0 -11.26 8.71 -0 0.00 0 -0 0.00 -15 -0 37.39 0 -0 36.80 0 -0 18.40 0 -0 0.00 0 -0 31.73 0 -0 31.73 0 -0 31.73 0 -0 0.00 15 -0 41.34 0 -0 41.34 0 -0 41.34 0 -0 0.00 25 -0 40.59 0 -0 40.59 0 -0 40.59 -3.80 0.78 2.49 -12.49 -30.66 55.16 -50.98 12.24 -5.41 -13.75 25.22 -5.99 -8.16 0 -44.56 -6.28 0 -0.35 36.37 0 0.00 0.00 0 0.00 -15.00 0 -46.07 0.00 0 -49.98 0.00 0 -24.99 0.00 0 0.00 0.00 0 -50.96 0.00 0 -50.96 0.00 0 -50.96 0.00 0 0.00 15.00 0 -71.62 0.00 0 -71.62 0.00 0 -71.62 0.00 0 0.00 25.00 0 -48.17 0.00 0 -48.17 0.00 0 -48.17 
-138.62 90.08 92.42 147.57 -6.48 2.67 19.89 -11.91 -12.61 0.00 35.62 0.00 -0.28 -15.77 12.36 -7.26 3.25 3.73 -0.00 44.39 -0.00 1.37 -2.30 1.13 -13.95 5.97 2.75 -3.47 1.66 0.81 -5.59 2.96 1.29 0.98 -0.33 0.12 0.99 -0.33 0.13 17.85 -6.24 1.39 23.69 -0.15 -4.56 -18.89 -1.87 -36.47 -44.23 -10.58 43.73 -23.15 -1 22.27 -46.59 -0 18.58 17.36 -0 -11.25 8.69 -0 0.00 0 -0 0.00 -15 -0 37.36 0 -0 37.07 0 -0 18.53 0 -0 0.00 0 -0 31.92 0 -0 31.92 0 -0 31.92 0 -0 0.00 15 -0 41.55 0 -0 41.55 0 -0 41.55 0 -0 0.00 25 -0 40.69 0 -0 40.69 0 -0 40.69 -3.73 0.90 1.92 -14.21 -30.13 55.58 -50.62 14.13 -5.47 -12.82 24.8 -6.53 -8.22 0 -44.44 -6.39 0 -0.23 36.26 0 0.00 0.00 0 0.00 -15.00 0 -45.75 0.00 0 -49.91 0.00 0 -24.95 0.00 0 0.00 0.00 0 -49.70 0.00 0 -49.70 0.00 0 -49.70 0.00 0 0.00 15.00 0 -71.18 0.00 0 -71.18 0.00 0 -71.18 0.00 0 0.00 25.00 0 -48.03 0.00 0 -48.03 0.00 0 -48.03 
-138.76 90.17 92.24 148.59 -6.64 2.40 18.83 -11.30 -12.46 0.00 34.94 0.00 -0.38 -15.65 12.55 -7.17 4.89 3.69 0.00 42.21 0.00 3.84 -4.80 0.76 -11.46 4.20 3.32 -2.85 1.15 0.90 -4.63 2.08 1.46 0.75 -0.21 0.13 0.75 -0.22 0.13 13.43 -4.20 1.86 20.40 1.68 -3.85 -19.55 -1.55 -36.32 -43.58 -11.15 43.77 -23.58 -0.95 22.04 -46.59 -0 18.58 17.37 -0 -11.24 8.68 -0 0.00 0 -0 0.00 -15 -0 37.36 0 -0 37.86 0 -0 18.93 0 -0 0.00 0 -0 32.13 0 -0 32.13 0 -0 32.13 0 -0 0.00 15 -0 41.83 0 -0 41.83 0 -0 41.83 0 -0 0.00 25 -0 40.77 0 -0 40.77 0 -0 40.77 -7.57 2.56 0.80 -11.38 -28.09 54.1 -53.43 15.32 -6.72 -12.04 24.62 -6.88 -8.27 0 -44.34 -6.50 0 -0.12 36.22 0 0.00 0.00 0 0.00 -15.00 0 -45.31 0.00 0 -49.86 0.00 0 -24.93 0.00 0 0.00 0.00 0 -47.91 0.00 0 -47.91 0.00 0 -47.91 0.00 0 0.00 15.00 0 -70.99 0.00 0 -70.99 0.00 0 -70.99 0.00 0 0.00 25.00 0 -47.87 0.00 0 -47.87 0.00 0 -47.87 
